<?xml version="1.0" standalone="no"?>
<!DOCTYPE svg PUBLIC "-//W3C//DTD SVG 20010904//EN"
 "http://www.w3.org/TR/2001/REC-SVG-20010904/DTD/svg10.dtd">
<svg version="1.0" xmlns="http://www.w3.org/2000/svg"
 width="50.000000pt" height="50.000000pt" viewBox="0 0 50.000000 50.000000"
 preserveAspectRatio="xMidYMid meet">

<g transform="translate(0.000000,50.000000) scale(0.100000,-0.100000)"
fill="#000000" stroke="none">
<path d="M130 370 l-65 -59 62 -61 c33 -33 66 -60 72 -60 25 0 23 32 -5 61
l-28 29 83 0 c74 0 84 -2 106 -25 32 -31 32 -66 1 -102 -24 -27 -27 -28 -148
-31 -127 -4 -150 -10 -128 -37 10 -12 35 -15 114 -15 122 0 167 11 200 50 32
39 40 77 24 125 -21 63 -63 85 -164 85 -46 0 -84 3 -84 6 0 3 11 15 26 26 25
20 30 58 9 65 -5 1 -39 -24 -75 -57z"/>
</g>
</svg>
